HIERARCHY
ROOT hip
{
  OFFSET 0 0 0
  CHANNELS 6 Xposition Yposition Zposition Zrotation Yrotation Xrotation
  JOINT abdomen
  {
    OFFSET 0 20.6881 -0.73152
    CHANNELS 3 Zrotation Xrotation Yrotation
    JOINT chest
    {
      OFFSET 0 11.7043 -0.48768
      CHANNELS 3 Zrotation Xrotation Yrotation
      JOINT neck
      {
        OFFSET 0 22.1894 -2.19456
        CHANNELS 3 Zrotation Xrotation Yrotation
        JOINT head
        {
          OFFSET -0.24384 7.07133 1.2192
          CHANNELS 3 Zrotation Xrotation Yrotation
          JOINT leftEye
          {
            OFFSET 4.14528 8.04674 8.04672
            CHANNELS 3 Zrotation Xrotation Yrotation
            End Site
            {
              OFFSET 1 0 0
            }
          }
          JOINT rightEye
          {
            OFFSET -3.6576 8.04674 8.04672
            CHANNELS 3 Zrotation Xrotation Yrotation
            End Site
            {
              OFFSET 1 0 0
            }
          }
        }
      }
      JOINT rCollar
      {
        OFFSET -2.68224 19.2634 -4.8768
        CHANNELS 3 Zrotation Xrotation Yrotation
        JOINT rShldr
        {
          OFFSET -8.77824 -1.95073 1.46304
          CHANNELS 3 Zrotation Xrotation Yrotation
          JOINT rForeArm
          {
            OFFSET -28.1742 -1.7115 0.48768
            CHANNELS 3 Zrotation Xrotation Yrotation
            JOINT rHand
            {
              OFFSET -22.5879 0.773209 7.07136
              CHANNELS 3 Zrotation Xrotation Yrotation
              JOINT rThumb1
              {
                OFFSET -1.2192 -0.487915 3.41376
                CHANNELS 3 Zrotation Xrotation Yrotation
                JOINT rThumb2
                {
                  OFFSET -3.37035 -0.52449 3.41376
                  CHANNELS 3 Zrotation Xrotation Yrotation
                  End Site
                  {
                    OFFSET -1.78271 -1.18214 1.43049
                  }
                }
              }
              JOINT rIndex1
              {
                OFFSET -7.75947 0.938293 5.60832
                CHANNELS 3 Zrotation Xrotation Yrotation
                JOINT rIndex2
                {
                  OFFSET -2.54057 -0.884171 1.56538
                  CHANNELS 3 Zrotation Xrotation Yrotation
                  End Site
                  {
                    OFFSET -1.62519 -0.234802 1.16502
                  }
                }
              }
              JOINT rMid1
              {
                OFFSET -8.24714 1.18213 3.41376
                CHANNELS 3 Zrotation Xrotation Yrotation
                JOINT rMid2
                {
                  OFFSET -3.10165 -0.590103 1.0647
                  CHANNELS 3 Zrotation Xrotation Yrotation
                  End Site
                  {
                    OFFSET -2.48547 -0.328903 0.83742
                  }
                }
              }
              JOINT rRing1
              {
                OFFSET -8.82822 0.546677 1.51678
                CHANNELS 3 Zrotation Xrotation Yrotation
                JOINT rRing2
                {
                  OFFSET -2.60934 -0.819778 -0.0198488
                  CHANNELS 3 Zrotation Xrotation Yrotation
                  End Site
                  {
                    OFFSET -2.33842 -0.294052 0.168128
                  }
                }
              }
              JOINT rPinky1
              {
                OFFSET -8.27202 -0.0477905 -0.4584
                CHANNELS 3 Zrotation Xrotation Yrotation
                JOINT rPinky2
                {
                  OFFSET -1.82734 -0.647385 -0.700984
                  CHANNELS 3 Zrotation Xrotation Yrotation
                  End Site
                  {
                    OFFSET -1.69225 -0.51767 -0.607171
                  }
                }
              }
            }
          }
        }
      }
      JOINT lCollar
      {
        OFFSET 2.68224 19.2634 -4.8768
        CHANNELS 3 Zrotation Xrotation Yrotation
        JOINT lShldr
        {
          OFFSET 8.77824 -1.95073 1.46304
          CHANNELS 3 Zrotation Xrotation Yrotation
          JOINT lForeArm
          {
            OFFSET 28.1742 -1.7115 0.48768
            CHANNELS 3 Zrotation Xrotation Yrotation
            JOINT lHand
            {
              OFFSET 22.5879 0.773209 7.07136
              CHANNELS 3 Zrotation Xrotation Yrotation
              JOINT lThumb1
              {
                OFFSET 1.2192 -0.487915 3.41376
                CHANNELS 3 Zrotation Xrotation Yrotation
                JOINT lThumb2
                {
                  OFFSET 3.37035 -0.52449 3.41376
                  CHANNELS 3 Zrotation Xrotation Yrotation
                  End Site
                  {
                    OFFSET 1.78271 -1.18214 1.43049
                  }
                }
              }
              JOINT lIndex1
              {
                OFFSET 7.75947 0.938293 5.60832
                CHANNELS 3 Zrotation Xrotation Yrotation
                JOINT lIndex2
                {
                  OFFSET 2.54057 -0.884171 1.56538
                  CHANNELS 3 Zrotation Xrotation Yrotation
                  End Site
                  {
                    OFFSET 1.62519 -0.234802 1.16502
                  }
                }
              }
              JOINT lMid1
              {
                OFFSET 8.24714 1.18213 3.41376
                CHANNELS 3 Zrotation Xrotation Yrotation
                JOINT lMid2
                {
                  OFFSET 3.10165 -0.590103 1.0647
                  CHANNELS 3 Zrotation Xrotation Yrotation
                  End Site
                  {
                    OFFSET 2.48547 -0.328903 0.83742
                  }
                }
              }
              JOINT lRing1
              {
                OFFSET 8.82822 0.546677 1.51678
                CHANNELS 3 Zrotation Xrotation Yrotation
                JOINT lRing2
                {
                  OFFSET 2.60934 -0.819778 -0.0198488
                  CHANNELS 3 Zrotation Xrotation Yrotation
                  End Site
                  {
                    OFFSET 2.33842 -0.294052 0.168128
                  }
                }
              }
              JOINT lPinky1
              {
                OFFSET 8.27202 -0.0477905 -0.4584
                CHANNELS 3 Zrotation Xrotation Yrotation
                JOINT lPinky2
                {
                  OFFSET 1.82734 -0.647385 -0.700984
                  CHANNELS 3 Zrotation Xrotation Yrotation
                  End Site
                  {
                    OFFSET 1.69225 -0.51767 -0.607171
                  }
                }
              }
            }
          }
        }
      }
    }
  }
  JOINT rButtock
  {
    OFFSET -8.77824 4.35084 1.2192
    CHANNELS 3 Zrotation Xrotation Yrotation
    JOINT rThigh
    {
      OFFSET 0 -1.70687 -2.19456
      CHANNELS 3 Zrotation Xrotation Yrotation
      JOINT rShin
      {
        OFFSET 0 -36.8199 0.73152
        CHANNELS 3 Zrotation Xrotation Yrotation
        JOINT rFoot
        {
          OFFSET 0.73152 -45.1104 -5.12064
          CHANNELS 3 Zrotation Xrotation Yrotation
          End Site
          {
            OFFSET -1.1221 -3.69964 12.103
          }
        }
      }
    }
  }
  JOINT lButtock
  {
    OFFSET 8.77824 4.35084 1.2192
    CHANNELS 3 Zrotation Xrotation Yrotation
    JOINT lThigh
    {
      OFFSET 0 -1.70687 -2.19456
      CHANNELS 3 Zrotation Xrotation Yrotation
      JOINT lShin
      {
        OFFSET 0 -36.8199 0.73152
        CHANNELS 3 Zrotation Xrotation Yrotation
        JOINT lFoot
        {
          OFFSET -0.73152 -45.1104 -5.12064
          CHANNELS 3 Zrotation Xrotation Yrotation
          End Site
          {
            OFFSET 1.1221 -3.69964 12.103
          }
        }
      }
    }
  }
}
MOTION
Frames:	4
Frame Time:	0.00833333
4.23664 84.0473 31.6538 3.4644 -1.5992 -7.5769 -5.48132 21.4223 -1.09808 2.9426 -7.76337 -0.658931 -3.91806 10.6382 -3.30158 -2.45026 7.41315 -5.95338 -0.0 0.0 0.0 -0.0 0.0 0.0 -9.73851e-14 -2.49292e-13 -2.56114e-14 79.9465 -8.01045 -20.5768 -28.2981 -38.4005 81.0883 -5.17131 -52.3473 -10.495 -4.81124e-10 -5.88681e-11 -2.49215e-11 -8.14834e-10 -1.21427e-10 -6.54828e-11 -4.81116e-10 -5.8867e-11 -2.49423e-11 7.73091 5.47488 0.417314 -4.81126e-10 -5.88669e-11 -2.4924e-11 2.90554 0.965183 0.102902 -4.81121e-10 -5.88634e-11 -2.49237e-11 10.2786 0.731801 0.0259123 -4.81126e-10 -5.88553e-11 -2.49209e-11 2.22167 -0.733487 -0.20892 -9.75126e-14 -2.49285e-13 -2.58738e-14 -84.0943 2.28875 20.1371 16.0076 -8.69976 -29.6755 0.0249638 -4.57663 0.644516 -1.10206e-10 2.40209e-10 -1.03365e-09 -1.90613e-10 4.19441e-10 -1.7868e-09 -1.10208e-10 2.40214e-10 -1.03364e-09 -7.73091 5.47488 -0.417314 -1.10206e-10 2.40211e-10 -1.03365e-09 -2.90554 0.965183 -0.102902 -1.10211e-10 2.40209e-10 -1.03365e-09 -10.2786 0.731801 -0.0259123 -1.10205e-10 2.40208e-10 -1.03366e-09 -2.22167 -0.733487 0.20892 -2.03217e-16 0.0 -3.88251e-19 -5.41127 -24.7617 -1.84397 -2.74566 73.1598 2.8733 0.235327 10.1743 -15.4386 2.03217e-16 0.0 3.88251e-19 -11.7393 -14.7033 -5.46986 0.162121 34.7944 -0.237256 1.45387 -7.88521 5.44577
4.48023 84.0386 32.6455 4.2051 -1.2509 -7.4711 -6.01302 21.3629 -1.40831 3.16788 -7.7087 -0.749717 -3.88477 10.7812 -3.21096 -2.70027 7.17981 -5.78142 -0.0 0.0 0.0 -0.0 0.0 0.0 -2.02891e-13 -1.15697e-13 -3.21037e-14 79.7892 -7.81309 -20.1074 -28.2169 -39.1468 82.3609 -4.42959 -49.6347 -9.52748 1.22997e-09 1.8041e-09 1.23845e-09 2.08923e-09 3.17086e-09 2.17263e-09 1.22997e-09 1.8041e-09 1.23843e-09 7.73091 5.47488 0.417314 1.22996e-09 1.8041e-09 1.23845e-09 2.90554 0.965183 0.102902 1.22997e-09 1.80411e-09 1.23845e-09 10.2786 0.731801 0.0259123 1.22997e-09 1.80412e-09 1.23845e-09 2.22167 -0.733487 -0.20892 -2.02953e-13 -1.15688e-13 -3.23025e-14 -84.3022 3.02775 20.0321 16.4448 -9.11437 -30.6004 0.033226 -5.28258 0.744447 1.65106e-09 1.1536e-09 -3.67719e-10 2.85281e-09 1.99804e-09 -6.28605e-10 1.65106e-09 1.1536e-09 -3.67714e-10 -7.73091 5.47488 -0.417314 1.65106e-09 1.1536e-09 -3.67722e-10 -2.90554 0.965183 -0.102902 1.65106e-09 1.1536e-09 -3.67723e-10 -10.2786 0.731801 -0.0259123 1.65107e-09 1.1536e-09 -3.67732e-10 -2.22167 -0.733487 0.20892 -2.03217e-16 0.0 -3.88251e-19 -6.18655 -25.661 -2.31914 -2.66308 72.8864 2.84959 -0.24143 8.4286 -14.9976 2.03217e-16 0.0 3.88251e-19 -12.406 -13.6864 -5.49538 0.147826 34.5377 -0.29654 1.52982 -8.55783 5.40863
4.31067 84.0711 33.8167 3.6948 -1.4097 -7.7799 -6.55469 21.2996 -1.71046 3.40742 -7.6643 -0.836049 -3.83112 10.8668 -3.11755 -2.9492 7.00868 -5.60293 -0.0 0.0 0.0 -0.0 0.0 0.0 -2.93958e-13 2.42597e-14 -4.03851e-14 79.6071 -7.51784 -19.5424 -28.1153 -39.8307 83.5701 -3.71239 -46.6012 -8.56086 2.88083e-09 3.4949e-09 2.38584e-09 4.89205e-09 6.16233e-09 4.20897e-09 2.88083e-09 3.49491e-09 2.38583e-09 7.73091 5.47488 0.417314 2.88083e-09 3.4949e-09 2.38584e-09 2.90554 0.965183 0.102902 2.88083e-09 3.49491e-09 2.38584e-09 10.2786 0.731801 0.0259123 2.88083e-09 3.49491e-09 2.38584e-09 2.22167 -0.733487 -0.20892 -2.93953e-13 2.4269e-14 -4.05202e-14 -84.4954 3.8214 19.9256 16.8826 -9.53804 -31.549 0.0436728 -6.00237 0.846643 3.27921e-09 2.04717e-09 2.93224e-10 5.66645e-09 3.54257e-09 5.20208e-10 3.2792e-09 2.04717e-09 2.93228e-10 -7.73091 5.47488 -0.417314 3.27921e-09 2.04717e-09 2.93219e-10 -2.90554 0.965183 -0.102902 3.27921e-09 2.04717e-09 2.9322e-10 -10.2786 0.731801 -0.0259123 3.27921e-09 2.04717e-09 2.93209e-10 -2.22167 -0.733487 0.20892 -2.03217e-16 0.0 -3.88251e-19 -6.93053 -26.5204 -2.75338 -2.54431 72.4229 2.79027 -0.681836 6.68579 -14.4937 2.03217e-16 0.0 3.88251e-19 -13.0343 -12.7 -5.46684 0.133764 34.2768 -0.356165 1.59602 -9.21911 5.33319
4.67038 84.0602 34.9011 4.7722 -0.8087 -7.6774 -6.93878 21.2408 -2.00444 3.63016 -7.66015 -0.910034 -3.72753 10.8091 -2.99763 -3.21049 6.9746 -5.36808 -0.0 0.0 0.0 -0.0 0.0 0.0 -3.22959e-13 1.0893e-13 -4.92489e-14 79.4094 -7.13387 -18.8752 -28.0052 -40.387 84.618 -2.98713 -43.0945 -7.55573 3.73092e-09 4.14255e-09 2.83076e-09 6.33754e-09 7.3168e-09 5.00607e-09 3.73093e-09 4.14256e-09 2.83075e-09 7.73091 5.47488 0.417314 3.73092e-09 4.14255e-09 2.83076e-09 2.90554 0.965183 0.102902 3.73093e-09 4.14256e-09 2.83076e-09 10.2786 0.731801 0.0259123 3.73092e-09 4.14257e-09 2.83077e-09 2.22167 -0.733487 -0.20892 -3.22914e-13 1.08938e-13 -4.93483e-14 -84.6251 4.60019 19.7682 17.2782 -9.9311 -32.4203 0.0543187 -6.63618 0.93689 3.97471e-09 2.52177e-09 6.1358e-10 6.86894e-09 4.36351e-09 1.07608e-09 3.9747e-09 2.52177e-09 6.13583e-10 -7.73091 5.47488 -0.417314 3.97471e-09 2.52177e-09 6.13574e-10 -2.90554 0.965183 -0.102902 3.97471e-09 2.52177e-09 6.13575e-10 -10.2786 0.731801 -0.0259123 3.97471e-09 2.52177e-09 6.13564e-10 -2.22167 -0.733487 0.20892 -2.03217e-16 0.0 -3.88251e-19 -7.42129 -27.3819 -3.08084 -2.39868 71.7568 2.6977 -1.04996 5.1248 -14.1494 2.03217e-16 0.0 3.88251e-19 -13.4598 -11.8046 -5.3932 0.121398 34.0568 -0.415474 1.65463 -9.84156 5.24534
